<?xml version="1.0" encoding="UTF-8"?>
<svg width="16px" height="16px" viewBox="0 0 16 16" version="1.1" xmlns="http://www.w3.org/2000/svg" xmlns:xlink="http://www.w3.org/1999/xlink">
    <!-- Generator: Sketch 51.2 (57519) - http://www.bohemiancoding.com/sketch -->
    <title>compute</title>
    <desc>Created with Sketch.</desc>
    <defs></defs>
    <g id="compute" stroke="none" stroke-width="1" fill="none" fill-rule="evenodd">
        <g id="prods" transform="translate(3.000000, 0.000000)" fill="#FF8C02" fill-rule="nonzero">
            <rect id="Rectangle-4" x="0" y="0" width="1" height="3" rx="0.5"></rect>
            <rect id="Rectangle-4-Copy-4" x="0" y="13" width="1" height="3" rx="0.5"></rect>
            <rect id="Rectangle-4-Copy-2" x="6" y="0" width="1" height="3" rx="0.5"></rect>
            <rect id="Rectangle-4-Copy-5" x="6" y="13" width="1" height="3" rx="0.5"></rect>
            <rect id="Rectangle-4-Copy" x="3" y="0" width="1" height="3" rx="0.5"></rect>
            <rect id="Rectangle-4-Copy-6" x="3" y="13" width="1" height="3" rx="0.5"></rect>
            <rect id="Rectangle-4-Copy-3" x="9" y="0" width="1" height="3" rx="0.5"></rect>
            <rect id="Rectangle-4-Copy-7" x="9" y="13" width="1" height="3" rx="0.5"></rect>
        </g>
        <g id="prods" transform="translate(8.000000, 8.000000) rotate(-270.000000) translate(-8.000000, -8.000000) translate(3.000000, 0.000000)" fill="#FF8C02" fill-rule="nonzero">
            <rect id="Rectangle-4" x="0" y="0" width="1" height="3" rx="0.5"></rect>
            <rect id="Rectangle-4-Copy-4" x="0" y="13" width="1" height="3" rx="0.5"></rect>
            <rect id="Rectangle-4-Copy-2" x="6" y="0" width="1" height="3" rx="0.5"></rect>
            <rect id="Rectangle-4-Copy-5" x="6" y="13" width="1" height="3" rx="0.5"></rect>
            <rect id="Rectangle-4-Copy" x="3" y="0" width="1" height="3" rx="0.5"></rect>
            <rect id="Rectangle-4-Copy-6" x="3" y="13" width="1" height="3" rx="0.5"></rect>
            <rect id="Rectangle-4-Copy-3" x="9" y="0" width="1" height="3" rx="0.5"></rect>
            <rect id="Rectangle-4-Copy-7" x="9" y="13" width="1" height="3" rx="0.5"></rect>
        </g>
        <path d="M3,2 L13,2 C13.5522847,2 14,2.44771525 14,3 L14,13 C14,13.5522847 13.5522847,14 13,14 L3,14 C2.44771525,14 2,13.5522847 2,13 L2,3 C2,2.44771525 2.44771525,2 3,2 Z M5,4 C4.44771525,4 4,4.44771525 4,5 L4,11 C4,11.5522847 4.44771525,12 5,12 L11,12 C11.5522847,12 12,11.5522847 12,11 L12,5 C12,4.44771525 11.5522847,4 11,4 L5,4 Z" id="Combined-Shape" fill="#6B849C" fill-rule="nonzero"></path>
    </g>
</svg>