<?xml version="1.0" encoding="UTF-8"?>
<svg width="16px" height="16px" viewBox="0 0 16 16" version="1.1" xmlns="http://www.w3.org/2000/svg" xmlns:xlink="http://www.w3.org/1999/xlink">
    <!-- Generator: Sketch 50.2 (55047) - http://www.bohemiancoding.com/sketch -->
    <title>connect_light</title>
    <desc>Created with Sketch.</desc>
    <defs></defs>
    <g id="connect_light" stroke="none" stroke-width="1" fill="none" fill-rule="evenodd">
        <g id="Connect" fill-rule="nonzero">
            <polygon id="canvas" fill="#2D2D30" opacity="0" points="16 0 16 16 0 16 0 0"></polygon>
            <path d="M10,4 L12,4 L12,8 C12,10.035 10.468,11.7 8.5,11.95 L8.5,15 L7.5,15 L7.5,11.95 C5.532,11.7 4,10.035 4,8 L4,4 L6,4 L6,1 L7,1 L7,4 L9,4 L9,1 L10,1 L10,4 Z M8,11 C9.654,11 11,9.654 11,8 L11,5 L5,5 L5,8 C5,9.654 6.346,11 8,11 Z" id="iconBg" fill="#5DB300"></path>
        </g>
        <rect id="Rectangle-15" fill="#5DB300" x="7" y="11" width="2" height="4"></rect>
    </g>
</svg>