<?xml version="1.0" encoding="UTF-8"?>
<svg width="16px" height="16px" viewBox="0 0 16 16" version="1.1" xmlns="http://www.w3.org/2000/svg" xmlns:xlink="http://www.w3.org/1999/xlink">
    <!-- Generator: Sketch 51.2 (57519) - http://www.bohemiancoding.com/sketch -->
    <title>images</title>
    <desc>Created with Sketch.</desc>
    <defs></defs>
    <g id="images" stroke="none" stroke-width="1" fill="none" fill-rule="evenodd">
        <g id="Bottom-Container" transform="translate(1.000000, 7.000000)" fill="#6B849C">
            <path d="M3.73333333,0.533333333 L14,2.51666667 L14,5.66666667 L3.73333333,8 L3.73333333,0.533333333 Z M13.0666667,5.15753333 L13.0666667,2.98333333 L4.66666667,1.70933333 L4.66666667,6.8758 L5.481,6.73486667 L5.48333333,2.36266667 L6.78813333,2.5134 L6.78813333,6.41706667 L7.46666667,6.3032 L7.46666667,2.60066667 L8.6548,2.757 L8.6548,6.03486667 L9.33333333,5.921 L9.33333333,2.84473333 L10.5214667,3.002 L10.5214667,5.6536 L11.2,5.53973333 L11.2,3.08926667 L12.3881333,3.2456 L12.3881333,5.2714 L13.0666667,5.15753333 Z" id="Combined-Shape"></path>
            <path d="M0,1.81666667 L3.73333333,0.533333333 L3.73333333,8 L0,6.13333333 L0,1.81666667 Z M3.2,2.3202 L3.2,1.85353333 L2.4,2.08406667 L0.533333333,2.62166667 L0.533333333,3.08833333 L0.533333333,5.66666667 L1.33333333,6.01526667 L1.33333333,2.8578 L2.4,2.55073333 L2.4,6.48333333 L3.2,6.83333333 L3.2,2.3202 Z" id="Combined-Shape"></path>
        </g>
        <g id="Top-Container" fill="#6B849C">
            <path d="M4.7513859,1.00663899 L14.9686794,4.82862534 L14.9686794,8.99613939 L4.7513859,6.73101343 L4.7513859,1.00663899 Z M14.0666667,5.64373256 L14.0666667,5.17247907 L13.1333333,4.84260163 L12.2,4.51272418 L11.6666,4.32422279 L9.86666667,3.68803058 L9.4,3.52309186 L8.46666667,3.19321442 L7.53333333,2.86333697 L5.66666667,2.20358209 L5.66666667,2.67483558 L5.66666667,5.8793593 L6.4838,6.0881246 L6.48146667,2.96041519 L7.78766667,3.38124456 L7.78766667,6.39726689 L8.46666667,6.58623953 L8.46666667,3.6644679 L9.65433333,4.04099944 L9.65433333,6.86852037 L10.3333333,7.05749302 L10.3333333,4.32422279 L11.521,4.70075433 L11.521,7.33977386 L12.2,7.52874651 L12.2,4.98397767 L13.3876667,5.36050921 L13.3876667,7.81102735 L14.0666667,8 L14.0666667,5.64373256 Z" id="Combined-Shape"></path>
            <path d="M0.991091464,2.89967179 L4.75659309,0.996665903 L4.75659309,6.73118994 L0.991091464,8.28699124 L0.991091464,2.89967179 Z M4.2,2.21607111 L3.4,2.606031 L3.4,2.61040166 L1.53333333,3.53115379 L1.53333333,4.01678254 L1.53333333,7 L2.33333333,6.70522334 L2.33333333,3.62245199 L3.4,3.09651605 L3.4,6.25455986 L4.2,5.92481793 L4.2,2.70169987 L4.2,2.21607111 Z" id="Combined-Shape"></path>
        </g>
    </g>
</svg>