<?xml version="1.0" encoding="UTF-8"?>
<svg width="16px" height="16px" viewBox="0 0 16 16" version="1.1" xmlns="http://www.w3.org/2000/svg" xmlns:xlink="http://www.w3.org/1999/xlink">
    <!-- Generator: Sketch 50.2 (55047) - http://www.bohemiancoding.com/sketch -->
    <title>workspace_dark</title>
    <desc>Created with Sketch.</desc>
    <defs></defs>
    <g id="workspace_dark" stroke="none" stroke-width="1" fill="none" fill-rule="evenodd">
        <g id="folder" transform="translate(0.000000, 1.000000)">
            <path d="M13.5317767,3.56329988 C13.5317767,2.3787401 13.5317767,2.3787401 13.5317767,2.3787401 C6.18907718,2.3787401 6.18907718,2.3787401 6.18907718,2.3787401 C4.50700941,0.676757812 4.50700941,0.676757812 4.50700941,0.676757812 C0,0.676757812 0,0.676757812 0,0.676757812 C0,13.1500528 0,13.1500528 0,13.1500528 C0,13.5378233 0.391279787,13.7963384 0.772239407,13.7963384 C13.4049363,13.7963384 13.4049363,13.7963384 13.4049363,13.7963384 C13.785891,13.7963384 14.0503303,13.5378233 14.0503303,13.1500528 C14.0503303,3.56329988 14.0503303,3.56329988 14.0503303,3.56329988 C13.5317767,3.56329988 13.5317767,3.56329988 13.5317767,3.56329988 C13.5317767,3.56329988 13.5317767,3.56329988 13.5317767,3.56329988 Z" id="Fill-10" fill="#FEE087"></path>
            <path d="M4.59105305,0.676757812 C0,0.676757812 0,0.676757812 0,0.676757812 C0,13.1500528 0,13.1500528 0,13.1500528 C0,13.5378233 0.277165928,13.7963384 0.676467376,13.7963384 C0.953633304,13.7963384 1.35293475,13.5378233 1.35293475,13.1500528 C1.35293475,3.56329988 1.35293475,3.56329988 1.35293475,3.56329988 C14.0503303,3.56329988 14.0503303,3.56329988 14.0503303,3.56329988 C14.0503303,3.56329988 14.0503303,3.56329988 14.0503303,3.56329988 C14.0503303,3.56329988 14.0503303,3.56329988 14.0503303,3.56329988 C14.0503303,2.3787401 14.0503303,2.3787401 14.0503303,2.3787401 C7.97338993,2.3787401 7.97338993,2.3787401 7.97338993,2.3787401 C6.3541063,2.3787401 6.3541063,2.3787401 6.3541063,2.3787401 C4.59105305,0.676757812 4.59105305,0.676757812 4.59105305,0.676757812 Z" id="Fill-13" fill="#C7A74A"></path>
        </g>
        <polygon id="Path-16" fill="#0D90CF" points="9.03062966 1.90340379 9.03062966 6.3738961 5 10.8281658 5.70973768 13.8755448 15.2173314 13.8755448 16 10.8281658 12.7434062 7.23218781 11.1973991 9.02791557 12.7434062 10.8281658 8.27832149 10.8281658 11.9513786 6.3738961 11.9513786 1.90340379"></polygon>
    </g>
</svg>