<?xml version="1.0" encoding="UTF-8"?>
<svg width="16px" height="16px" viewBox="0 0 16 16" version="1.1" xmlns="http://www.w3.org/2000/svg" xmlns:xlink="http://www.w3.org/1999/xlink">
    <!-- Generator: Sketch 50.2 (55047) - http://www.bohemiancoding.com/sketch -->
    <title>docker_light</title>
    <desc>Created with Sketch.</desc>
    <defs>
        <polygon id="path-1" points="0.0062745098 0.00985849057 15.9441569 0.00985849057 15.9441569 11 0.0062745098 11"></polygon>
    </defs>
    <g id="docker_light" stroke="none" stroke-width="1" fill="none" fill-rule="evenodd">
        <g id="Group" transform="translate(0.000000, 3.000000)">
            <g id="Group-3">
                <mask id="mask-2" fill="white">
                    <use xlink:href="#path-1"></use>
                </mask>
                <g id="Clip-2"></g>
                <path d="M9.01793464,5.05937736 L10.6642614,5.05937736 L10.6642614,3.57427358 L9.01793464,3.57427358 L9.01793464,5.05937736 Z M7.07231373,5.05937736 L8.71853595,5.05937736 L8.71853595,3.57427358 L7.07231373,3.57427358 L7.07231373,5.05937736 Z M5.12669281,5.05937736 L6.77301961,5.05937736 L6.77301961,3.57427358 L5.12669281,3.57427358 L5.12669281,5.05937736 Z M3.1810719,5.05937736 L4.82739869,5.05937736 L4.82739869,3.57427358 L3.1810719,3.57427358 L3.1810719,5.05937736 Z M1.23545098,5.05937736 L2.88177778,5.05937736 L2.88177778,3.57427358 L1.23545098,3.57427358 L1.23545098,5.05937736 Z M3.1810719,3.27716981 L4.82739869,3.27716981 L4.82739869,1.79206604 L3.1810719,1.79206604 L3.1810719,3.27716981 Z M5.12669281,3.27716981 L6.77301961,3.27716981 L6.77301961,1.79206604 L5.12669281,1.79206604 L5.12669281,3.27716981 Z M7.07231373,3.27716981 L8.71853595,3.27716981 L8.71853595,1.79206604 L7.07231373,1.79206604 L7.07231373,3.27716981 Z M7.07231373,1.49506604 L8.71853595,1.49506604 L8.71853595,0.00985849057 L7.07231373,0.00985849057 L7.07231373,1.49506604 Z M15.6117124,4.19338679 C15.252183,3.95470755 14.4260392,3.86722642 13.7903268,3.98625472 C13.7084444,3.39204717 13.3747451,2.87681132 12.7676863,2.41107547 L12.418719,2.18007547 L12.1858301,2.52678302 C11.8876863,2.97290566 11.7387712,3.59098113 11.7876078,4.18373585 C11.8095686,4.39221698 11.8785882,4.76517925 12.0947451,5.09310377 C11.8786928,5.20829245 11.4516078,5.36706604 10.8886797,5.35637736 L0.0614901961,5.35637736 L0.0402614379,5.48017925 C-0.0614901961,6.07583962 -0.0592941176,7.93463208 1.15691503,9.36338679 C2.08135948,10.4492736 3.46739869,11 5.27633987,11 C9.1979085,11 12.0992418,9.20866038 13.4579869,5.95234906 C13.9922614,5.96293396 15.1425882,5.95556604 15.7335425,4.83512264 C15.748915,4.80938679 15.784366,4.74214151 15.8875817,4.52992453 L15.9441569,4.41349057 L15.6117124,4.19338679 Z" id="Fill-1" fill="#066DA5" mask="url(#mask-2)"></path>
            </g>
            <path d="M10.2136847,10.2378727 L10.2402871,10.2378727 C10.2714675,10.2378727 10.2968325,10.2272612 10.2968325,10.2014907 C10.2968325,10.1788782 10.2804999,10.1635927 10.2448651,10.1635927 C10.2300173,10.1635927 10.2196239,10.1651086 10.2136847,10.1666246 L10.2136847,10.2378727 Z M10.2122,10.378853 L10.1557783,10.378853 L10.1557783,10.1303689 C10.17805,10.1258211 10.2092304,10.122663 10.2493195,10.122663 C10.2953477,10.122663 10.3160109,10.1303689 10.3338283,10.1409803 C10.3471913,10.1514654 10.3575848,10.1711723 10.3575848,10.195427 C10.3575848,10.2227135 10.3367978,10.2439363 10.3072259,10.2529055 L10.3072259,10.2560637 C10.3308587,10.2651592 10.3442217,10.2833502 10.3516456,10.316574 C10.3591933,10.354472 10.3635239,10.3696311 10.3695867,10.378853 L10.308587,10.378853 C10.3012868,10.3696311 10.2968325,10.3470187 10.2892848,10.3180899 C10.2849542,10.2908034 10.2701064,10.2788024 10.238926,10.2788024 L10.2122,10.2788024 L10.2122,10.378853 Z M10.0622371,10.2483578 C10.0622371,10.3590197 10.1424152,10.4469429 10.2521653,10.4469429 C10.3591933,10.4469429 10.4376392,10.3590197 10.4376392,10.25 C10.4376392,10.139338 10.3591933,10.0500253 10.2506805,10.0500253 C10.1424152,10.0500253 10.0622371,10.139338 10.0622371,10.2483578 Z M10.5,10.2483578 C10.5,10.3894644 10.3917347,10.5 10.2506805,10.5 C10.1113586,10.5 10,10.3894644 10,10.2483578 C10,10.110662 10.1113586,10 10.2506805,10 C10.3917347,10 10.5,10.110662 10.5,10.2483578 Z" id="Fill-4" fill="#066DA5"></path>
        </g>
    </g>
</svg>