<?xml version="1.0" encoding="UTF-8"?>
<svg width="16px" height="16px" viewBox="0 0 16 16" version="1.1" xmlns="http://www.w3.org/2000/svg" xmlns:xlink="http://www.w3.org/1999/xlink">
    <!-- Generator: Sketch 50.2 (55047) - http://www.bohemiancoding.com/sketch -->
    <title>model_dark</title>
    <desc>Created with Sketch.</desc>
    <defs></defs>
    <g id="model_dark" stroke="none" stroke-width="1" fill="none" fill-rule="evenodd">
        <g id="Group" transform="translate(8.000000, 8.000000) rotate(-315.000000) translate(-8.000000, -8.000000) translate(-2.000000, -2.000000)">
            <path d="M10,3.304623 L4.20163343,6.6523115 L4.20163343,13.3476885 L10,16.695377 L15.7983666,13.3476885 L15.7983666,6.6523115 L10,3.304623 Z" id="Polygon" stroke="#00BCF2" transform="translate(10.000000, 10.000000) rotate(-780.000000) translate(-10.000000, -10.000000) "></path>
            <path d="M4.47089576,6.44230549 L10.032711,12.7789122" id="Path-11" stroke="#00BCF2" transform="translate(7.251803, 9.610609) rotate(-360.000000) translate(-7.251803, -9.610609) "></path>
            <path d="M4.07236887,9.56399477 L16.836722,9.56399477" id="Path-10" stroke="#00BCF2" transform="translate(10.454545, 10.018540) rotate(-450.000000) translate(-10.454545, -10.018540) "></path>
            <path d="M4.46951685,13.9869869 L9.90068084,12.7728456" id="Path-13" stroke="#00BCF2" transform="translate(7.185099, 13.379916) rotate(-360.000000) translate(-7.185099, -13.379916) "></path>
            <path d="M10,12.8796757 L15.4375414,6.36363636" id="Path-12" stroke="#00BCF2" transform="translate(12.718771, 9.621656) rotate(-360.000000) translate(-12.718771, -9.621656) "></path>
            <path d="M15.5345439,13.7110334 L10.0125445,12.7953362" id="Path-14" stroke="#00BCF2" transform="translate(12.773544, 13.253185) rotate(-360.000000) translate(-12.773544, -13.253185) "></path>
            <path d="M10.0156842,8.22487571 L4.62062027,6.41054096" id="Path-15" stroke="#00BCF2"></path>
            <path d="M15.3950639,8.17797112 L10,6.36363636" id="Path-15" stroke="#00BCF2" transform="translate(12.697532, 7.270804) scale(1, -1) translate(-12.697532, -7.270804) "></path>
            <circle id="Oval-7" fill="#FF8C02" transform="translate(4.545455, 13.636364) rotate(-450.000000) translate(-4.545455, -13.636364) " cx="4.54545455" cy="13.6363636" r="1"></circle>
            <circle id="Oval-7-Copy" fill="#FF8C02" transform="translate(15.454545, 13.636364) rotate(-450.000000) translate(-15.454545, -13.636364) " cx="15.4545455" cy="13.6363636" r="1"></circle>
            <circle id="Oval-7-Copy-4" fill="#FF8C02" transform="translate(4.545455, 6.363636) rotate(-450.000000) translate(-4.545455, -6.363636) " cx="4.54545455" cy="6.36363636" r="1"></circle>
            <circle id="Oval-7-Copy-5" fill="#FF8C02" transform="translate(15.454545, 6.363636) rotate(-450.000000) translate(-15.454545, -6.363636) " cx="15.4545455" cy="6.36363636" r="1"></circle>
            <circle id="Oval-7-Copy-8" fill="#FF8C02" transform="translate(10.000000, 12.727273) rotate(-450.000000) translate(-10.000000, -12.727273) " cx="10" cy="12.7272727" r="1"></circle>
            <circle id="Oval-7-Copy-9" fill="#FF8C02" transform="translate(10.000000, 8.181818) rotate(-450.000000) translate(-10.000000, -8.181818) " cx="10" cy="8.18181818" r="1"></circle>
            <circle id="Oval-7-Copy-6" fill="#FF8C02" transform="translate(10.000000, 3.636364) rotate(-450.000000) translate(-10.000000, -3.636364) " cx="10" cy="3.63636364" r="1"></circle>
            <circle id="Oval-7-Copy-7" fill="#FF8C02" transform="translate(10.000000, 16.363636) rotate(-450.000000) translate(-10.000000, -16.363636) " cx="10" cy="16.3636364" r="1"></circle>
        </g>
    </g>
</svg>